<svg width="130" height="45" viewBox="0 0 130 45" fill="none" xmlns="http://www.w3.org/2000/svg">
<path d="M56.6711 18.4948V6.71077C56.6711 6.46468 56.7561 6.25329 56.9263 6.07661C57.0965 5.89993 57.3045 5.81158 57.5503 5.81158H64.7637C68.5767 5.81158 70.4835 7.5721 70.4835 11.0931C70.4835 14.6079 68.5767 16.3652 64.7637 16.3652H60.2352V18.4948C60.2352 18.741 60.147 18.9524 59.9705 19.1291C59.8003 19.2994 59.5923 19.3846 59.3465 19.3846H57.5692C57.3234 19.3846 57.1122 19.2994 56.9358 19.1291C56.7593 18.9524 56.6711 18.741 56.6711 18.4948ZM60.2352 13.6866H63.6859C64.7448 13.6866 65.5484 13.5099 66.0966 13.1565C66.645 12.7969 66.9192 12.1091 66.9192 11.0931C66.9192 10.0709 66.645 9.38311 66.0966 9.02976C65.5484 8.67003 64.7448 8.49024 63.6859 8.49024H60.2352V13.6866ZM79.2094 11.415L77.7531 11.3581C76.9026 11.3581 76.0894 11.8251 75.3143 12.759V18.8072C75.3143 18.9776 75.2576 19.1164 75.1441 19.2237C75.037 19.3309 74.9014 19.3846 74.7376 19.3846H72.6202C72.4494 19.3846 72.3111 19.3309 72.2039 19.2237C72.0968 19.1164 72.0435 18.9776 72.0435 18.8072V9.59766C72.0435 9.42728 72.0968 9.28847 72.2039 9.18116C72.3173 9.06762 72.4563 9.01079 72.6202 9.01079H74.7376C74.9077 9.01079 75.0466 9.06762 75.1538 9.18116C75.261 9.28847 75.3143 9.42728 75.3143 9.59766V10.1939C75.9573 9.72698 76.5748 9.38311 77.1674 9.16226C77.7663 8.93505 78.5477 8.82151 79.5116 8.82151C79.6817 8.82151 79.8207 8.87828 79.9279 8.99189C80.0413 9.09913 80.098 9.23482 80.098 9.39889V10.8376C80.098 11.008 80.0413 11.1468 79.9279 11.2541C79.8207 11.3613 79.6817 11.415 79.5116 11.415H79.2094ZM82.3481 18.2109C81.3648 17.3023 80.8731 15.9645 80.8731 14.1977C80.8731 12.4246 81.3648 11.0868 82.3481 10.1845C83.3314 9.2758 84.7427 8.82151 86.5835 8.82151C88.4297 8.82151 89.8452 9.2758 90.8285 10.1845C91.8111 11.0868 92.3028 12.4246 92.3028 14.1977C92.3028 15.9645 91.8111 17.3023 90.8285 18.2109C89.8452 19.1196 88.4297 19.5739 86.5835 19.5739C84.7427 19.5739 83.3314 19.1196 82.3481 18.2109ZM84.7399 11.7367C84.3493 12.2479 84.1536 13.065 84.1536 14.1882C84.1536 15.3114 84.3493 16.1317 84.7399 16.6492C85.1306 17.1666 85.7454 17.4253 86.5835 17.4253C87.4278 17.4253 88.0453 17.1666 88.4366 16.6492C88.8336 16.1317 89.032 15.3114 89.032 14.1882C89.032 13.065 88.8336 12.2479 88.4366 11.7367C88.0453 11.2256 87.4278 10.9701 86.5835 10.9701C85.7454 10.9701 85.1306 11.2256 84.7399 11.7367Z" fill="#1D63FF"/>
<path d="M61.4926 39.6508C59.7279 39.6508 58.3539 39.1965 57.3707 38.2879C56.3874 37.3792 55.8959 36.0446 55.8959 34.2841C55.8959 32.5173 56.3843 31.1795 57.3612 30.2709C58.3381 29.3559 59.6963 28.8984 61.4359 28.8984C63.1817 28.8984 64.521 29.1761 65.4538 29.7314C66.3929 30.2867 66.8625 31.107 66.8625 32.1923C66.8625 32.3627 66.8057 32.5015 66.6923 32.6088C66.5851 32.716 66.4465 32.7697 66.2763 32.7697H64.8677C64.4391 32.7697 64.0767 32.5394 63.7804 32.0787C63.4086 31.4856 62.75 31.189 61.8046 31.189C60.8654 31.189 60.2069 31.4319 59.8287 31.9178C59.4568 32.3974 59.2709 33.183 59.2709 34.2746C59.2709 35.3663 59.4631 36.1551 59.8476 36.6409C60.2383 37.1268 60.9127 37.3697 61.8707 37.3697C62.835 37.3697 63.5031 37.0731 63.8749 36.48C64.1712 36.0131 64.5336 35.7796 64.9622 35.7796H66.3708C66.541 35.7796 66.6796 35.8364 66.7868 35.9499C66.9002 36.0572 66.957 36.1929 66.957 36.3569C66.957 37.4423 66.4874 38.2626 65.5484 38.8179C64.6155 39.3732 63.2636 39.6508 61.4926 39.6508ZM69.3771 38.2689C68.4066 37.3476 67.9213 36.0226 67.9213 34.2936C67.9213 32.5583 68.4097 31.2269 69.3868 30.2993C70.3639 29.3654 71.7185 28.8984 73.4521 28.8984C75.1849 28.8984 76.5368 29.3527 77.5077 30.2614C78.4785 31.1637 78.9632 32.4605 78.9632 34.1516V34.6911C78.9632 34.8615 78.9065 35.0034 78.7931 35.117C78.686 35.2243 78.5477 35.2779 78.3776 35.2779H71.2587C71.3216 36.0541 71.5422 36.6188 71.9204 36.9722C72.3049 37.3256 72.9162 37.5022 73.7543 37.5022C74.5923 37.5022 75.1663 37.313 75.4747 36.9343C75.7838 36.5557 76.1648 36.3632 76.6191 36.3569H78.0277C78.1978 36.3569 78.3361 36.4138 78.4432 36.5273C78.5567 36.6346 78.614 36.7734 78.614 36.9438C78.614 38.7548 76.8902 39.6572 73.4424 39.6508C71.7026 39.6508 70.348 39.1902 69.3771 38.2689ZM71.2393 33.2808H75.6358C75.5729 31.7916 74.8413 31.047 73.4424 31.047C72.0497 31.047 71.3154 31.7916 71.2393 33.2808ZM80.703 42.0739V29.6746C80.703 29.5042 80.7563 29.3654 80.8635 29.2581C80.9769 29.1446 81.1159 29.0877 81.2797 29.0877H83.1046C83.2685 29.0877 83.404 29.1446 83.5112 29.2581C83.6246 29.3654 83.6813 29.5042 83.6813 29.6746V29.9585C84.677 29.2518 85.8332 28.8984 87.1505 28.8984C88.4678 28.8984 89.5679 29.3654 90.4503 30.2993C91.3326 31.2269 91.7738 32.5583 91.7738 34.2936C91.7738 36.0226 91.3167 37.3476 90.4025 38.2689C89.4891 39.1902 88.2569 39.6508 86.7065 39.6508C85.9058 39.6508 84.9951 39.4899 83.9738 39.1681V42.0739C83.9738 42.2443 83.9171 42.3831 83.8037 42.4904C83.6965 42.604 83.561 42.6608 83.3971 42.6608H81.2797C81.1159 42.6608 80.9769 42.604 80.8635 42.4904C80.7563 42.3831 80.703 42.2443 80.703 42.0739ZM83.9738 36.9817C84.787 37.2404 85.4709 37.3697 86.0254 37.3697C86.8891 37.3697 87.5004 37.1236 87.8599 36.6314C88.2251 36.1393 88.4083 35.3537 88.4083 34.2746C88.4083 33.1956 88.2347 32.4131 87.8883 31.9273C87.5474 31.4351 87.0343 31.189 86.347 31.189C85.6665 31.189 84.8755 31.4729 83.9738 32.0408V36.9817ZM93.5226 38.8841V29.6746C93.5226 29.5042 93.5765 29.3654 93.683 29.2581C93.7971 29.1446 93.9354 29.0877 94.0993 29.0877H99.7529C100.957 29.0877 101.93 29.3212 102.674 29.7881C103.424 30.2551 103.799 30.9587 103.799 31.8989C103.799 32.8328 103.412 33.5395 102.636 34.0191C103.739 34.5744 104.29 35.3978 104.29 36.4895C104.29 37.5812 103.934 38.3509 103.222 38.799C102.51 39.2407 101.489 39.4615 100.159 39.4615H94.0993C93.9354 39.4615 93.7971 39.4079 93.683 39.3006C93.5765 39.187 93.5226 39.0482 93.5226 38.8841ZM96.794 37.3508H99.9327C100.279 37.3508 100.544 37.253 100.726 37.0574C100.915 36.8618 101.01 36.6031 101.01 36.2812C101.01 35.9594 100.915 35.7007 100.726 35.5051C100.544 35.3095 100.279 35.2117 99.9327 35.2117H96.794V37.3508ZM96.794 33.1388H99.5634C99.8476 33.1388 100.077 33.0505 100.254 32.8738C100.437 32.6908 100.528 32.4573 100.528 32.1734C100.528 31.8894 100.437 31.6591 100.254 31.4824C100.077 31.2994 99.8476 31.2079 99.5634 31.2079H96.794V33.1388ZM105.945 38.8841V29.6746C105.945 29.5042 105.998 29.3654 106.106 29.2581C106.219 29.1446 106.358 29.0877 106.522 29.0877H108.497C108.668 29.0877 108.807 29.1446 108.914 29.2581C109.027 29.3654 109.084 29.5042 109.084 29.6746V35.8932L112.411 29.7692C112.512 29.5736 112.667 29.4127 112.875 29.2865C113.083 29.154 113.285 29.0877 113.48 29.0877H116.127C116.297 29.0877 116.436 29.1446 116.543 29.2581C116.656 29.3654 116.713 29.5042 116.713 29.6746V38.8841C116.713 39.0545 116.656 39.1933 116.543 39.3006C116.436 39.4079 116.297 39.4615 116.127 39.4615H114.151C113.981 39.4615 113.842 39.4079 113.735 39.3006C113.628 39.187 113.574 39.0482 113.574 38.8841V32.675L110.247 38.78C110.146 38.963 109.991 39.124 109.784 39.2628C109.575 39.3953 109.374 39.4615 109.179 39.4615H106.522C106.352 39.4615 106.213 39.4079 106.106 39.3006C105.998 39.1933 105.945 39.0545 105.945 38.8841ZM124.04 39.6508C122.275 39.6508 120.901 39.1965 119.918 38.2879C118.935 37.3792 118.443 36.0446 118.443 34.2841C118.443 32.5173 118.931 31.1795 119.908 30.2709C120.885 29.3559 122.244 28.8984 123.983 28.8984C125.729 28.8984 127.068 29.1761 128.001 29.7314C128.94 30.2867 129.409 31.107 129.409 32.1923C129.409 32.3627 129.353 32.5015 129.239 32.6088C129.132 32.716 128.994 32.7697 128.824 32.7697H127.415C126.986 32.7697 126.624 32.5394 126.327 32.0787C125.956 31.4856 125.297 31.189 124.352 31.189C123.413 31.189 122.754 31.4319 122.376 31.9178C122.004 32.3974 121.818 33.183 121.818 34.2746C121.818 35.3663 122.011 36.1551 122.395 36.6409C122.786 37.1268 123.46 37.3697 124.418 37.3697C125.382 37.3697 126.05 37.0731 126.422 36.48C126.719 36.0131 127.081 35.7796 127.509 35.7796H128.919C129.089 35.7796 129.227 35.8364 129.334 35.9499C129.448 36.0572 129.504 36.1929 129.504 36.3569C129.504 37.4423 129.035 38.2626 128.096 38.8179C127.163 39.3732 125.811 39.6508 124.04 39.6508Z" fill="white"/>
<path d="M10.3723 6.23076C10.3723 4.31901 11.9203 2.76923 13.8298 2.76923H34.5745C36.4839 2.76923 38.0319 4.31901 38.0319 6.23076V16.6154H10.3723V6.23076Z" fill="#1D63FF"/>
<path fill-rule="evenodd" clip-rule="evenodd" d="M0 21.4615C0 19.5498 1.54795 18 3.45745 18H44.9468C46.8563 18 48.4043 19.5498 48.4043 21.4615V36.0769C48.4043 37.9887 46.8563 39.5385 44.9468 39.5385H39.4149V29.0769H8.98936V39.5385H3.45745C1.54795 39.5385 0 37.9887 0 36.0769V21.4615ZM44.9468 22.8462C44.9468 23.6109 44.3276 24.2308 43.5638 24.2308C42.8 24.2308 42.1809 23.6109 42.1809 22.8462C42.1809 22.0814 42.8 21.4615 43.5638 21.4615C44.3276 21.4615 44.9468 22.0814 44.9468 22.8462ZM19.4183 26.1978C18.1467 26.1978 17.0564 25.4204 16.5957 24.3144H18.4769C19.1262 24.3144 19.6525 23.7874 19.6525 23.1373C19.6525 22.4873 19.1262 21.9603 18.4769 21.9603H16.5957C17.0564 20.8543 18.1467 20.0769 19.4183 20.0769C20.6973 20.0769 21.7929 20.8635 22.2488 21.9798C22.3185 21.9669 22.3903 21.9602 22.4636 21.9602H30.4583C31.1076 21.9602 31.634 22.4872 31.634 23.1373C31.634 23.7873 31.1076 24.3144 30.4583 24.3144H22.4636C22.3903 24.3144 22.3185 24.3076 22.2489 24.2948C21.793 25.4112 20.6974 26.1978 19.4183 26.1978Z" fill="#1D63FF"/>
<path fill-rule="evenodd" clip-rule="evenodd" d="M37.2766 41.3846C37.2766 43.2964 35.7286 44.8462 33.8191 44.8462H14.4574C12.548 44.8462 11 43.2964 11 41.3846V31H37.2766V41.3846ZM33.8191 35.8462H13.766V34.4615H33.8191V35.8462ZM13.766 40H33.8191V38.6154H13.766V40Z" fill="#1D63FF"/>
</svg>
