<svg width="197" height="65" viewBox="0 0 197 65" fill="none" xmlns="http://www.w3.org/2000/svg">
<path d="M89.834 22.9824C89.834 22.4447 89.9935 22.0618 90.3125 21.834C90.6315 21.597 90.9414 21.4785 91.2422 21.4785H92.8691C93.6895 21.4785 94.3138 21.9251 94.7422 22.8184C95.1706 23.7116 96.1322 24.1582 97.627 24.1582L102.412 24.2539C104.016 24.2539 104.818 23.7298 104.818 22.6816C104.818 21.8887 103.839 21.2643 101.879 20.8086C101.004 20.599 100.038 20.3939 98.9805 20.1934C97.9232 19.9837 96.8704 19.724 95.8223 19.4141C94.7832 19.1042 93.8262 18.7396 92.9512 18.3203C92.0762 17.901 91.3652 17.3268 90.8184 16.5977C90.2806 15.8594 90.0117 14.9935 90.0117 14C90.0117 12.168 90.6634 10.7598 91.9668 9.77539C93.2702 8.7819 95.5124 8.28516 98.6934 8.28516L102.166 8.36719C104.035 8.36719 105.716 8.85026 107.211 9.81641C108.715 10.7734 109.467 11.972 109.467 13.4121C109.467 13.9499 109.307 14.3372 108.988 14.5742C108.669 14.8112 108.364 14.9297 108.072 14.9297H106.445C105.625 14.9297 105.001 14.4831 104.572 13.5898C104.144 12.6875 103.182 12.2363 101.688 12.2363L97.5723 12.1543C95.9681 12.1543 95.166 12.6784 95.166 13.7266C95.166 14.3008 95.6719 14.7702 96.6836 15.1348C97.7044 15.4993 98.9349 15.8229 100.375 16.1055C101.824 16.3789 103.278 16.7116 104.736 17.1035C106.195 17.4954 107.43 18.1426 108.441 19.0449C109.462 19.9382 109.973 21.0547 109.973 22.3945C109.973 24.2266 109.316 25.6393 108.004 26.6328C106.701 27.6172 104.463 28.1094 101.291 28.1094L97.1484 28.0273C95.2799 28.0273 93.5938 27.5488 92.0898 26.5918C90.5859 25.6257 89.834 24.4225 89.834 22.9824ZM111.654 22.9824C111.654 22.4447 111.814 22.0618 112.133 21.834C112.452 21.597 112.762 21.4785 113.062 21.4785H114.689C115.51 21.4785 116.134 21.9251 116.562 22.8184C116.991 23.7116 117.952 24.1582 119.447 24.1582L124.232 24.2539C125.837 24.2539 126.639 23.7298 126.639 22.6816C126.639 21.8887 125.659 21.2643 123.699 20.8086C122.824 20.599 121.858 20.3939 120.801 20.1934C119.743 19.9837 118.691 19.724 117.643 19.4141C116.604 19.1042 115.646 18.7396 114.771 18.3203C113.896 17.901 113.186 17.3268 112.639 16.5977C112.101 15.8594 111.832 14.9935 111.832 14C111.832 12.168 112.484 10.7598 113.787 9.77539C115.09 8.7819 117.333 8.28516 120.514 8.28516L123.986 8.36719C125.855 8.36719 127.536 8.85026 129.031 9.81641C130.535 10.7734 131.287 11.972 131.287 13.4121C131.287 13.9499 131.128 14.3372 130.809 14.5742C130.49 14.8112 130.184 14.9297 129.893 14.9297H128.266C127.445 14.9297 126.821 14.4831 126.393 13.5898C125.964 12.6875 125.003 12.2363 123.508 12.2363L119.393 12.1543C117.788 12.1543 116.986 12.6784 116.986 13.7266C116.986 14.3008 117.492 14.7702 118.504 15.1348C119.525 15.4993 120.755 15.8229 122.195 16.1055C123.645 16.3789 125.098 16.7116 126.557 17.1035C128.015 17.4954 129.25 18.1426 130.262 19.0449C131.283 19.9382 131.793 21.0547 131.793 22.3945C131.793 24.2266 131.137 25.6393 129.824 26.6328C128.521 27.6172 126.283 28.1094 123.111 28.1094L118.969 28.0273C117.1 28.0273 115.414 27.5488 113.91 26.5918C112.406 25.6257 111.654 24.4225 111.654 22.9824ZM132.6 9.54297C132.545 9.43359 132.518 9.3151 132.518 9.1875C132.518 9.05078 132.6 8.88672 132.764 8.69531C132.937 8.49479 133.178 8.39453 133.488 8.39453H136.482C137.193 8.39453 137.736 8.82747 138.109 9.69336L143.4 21.4785L148.691 9.69336C149.065 8.83659 149.607 8.40365 150.318 8.39453H153.312C153.632 8.39453 153.873 8.49479 154.037 8.69531C154.201 8.88672 154.283 9.05078 154.283 9.1875C154.283 9.3151 154.26 9.43359 154.215 9.54297L146.34 26.6055C145.911 27.5352 145.26 28 144.385 28H142.416C141.541 28 140.889 27.5352 140.461 26.6055L132.6 9.54297Z" fill="#1D63FF"/>
<path d="M97.9277 57.2734C95.3757 57.2734 93.3887 56.6172 91.9668 55.3047C90.5449 53.9922 89.834 52.0645 89.834 49.5215C89.834 46.9694 90.5404 45.0371 91.9531 43.7246C93.3659 42.403 95.3301 41.7422 97.8457 41.7422C100.37 41.7422 102.307 42.1432 103.656 42.9453C105.014 43.7474 105.693 44.9323 105.693 46.5C105.693 46.7461 105.611 46.9466 105.447 47.1016C105.292 47.2565 105.092 47.334 104.846 47.334H102.809C102.189 47.334 101.665 47.0013 101.236 46.3359C100.699 45.4792 99.7461 45.0508 98.3789 45.0508C97.0208 45.0508 96.0684 45.4017 95.5215 46.1035C94.9837 46.7962 94.7148 47.931 94.7148 49.5078C94.7148 51.0846 94.9928 52.224 95.5488 52.9258C96.1139 53.6276 97.0892 53.9785 98.4746 53.9785C99.8691 53.9785 100.835 53.5501 101.373 52.6934C101.801 52.0189 102.326 51.6816 102.945 51.6816H104.982C105.229 51.6816 105.429 51.7637 105.584 51.9277C105.748 52.0827 105.83 52.2786 105.83 52.5156C105.83 54.0833 105.151 55.2682 103.793 56.0703C102.444 56.8724 100.489 57.2734 97.9277 57.2734ZM109.33 55.2773C107.926 53.9466 107.225 52.0326 107.225 49.5352C107.225 47.0286 107.931 45.1055 109.344 43.7656C110.757 42.4167 112.716 41.7422 115.223 41.7422C117.729 41.7422 119.684 42.3984 121.088 43.7109C122.492 45.0143 123.193 46.8874 123.193 49.3301V50.1094C123.193 50.3555 123.111 50.5605 122.947 50.7246C122.792 50.8796 122.592 50.957 122.346 50.957H112.051C112.142 52.0781 112.461 52.8939 113.008 53.4043C113.564 53.9147 114.448 54.1699 115.66 54.1699C116.872 54.1699 117.702 53.8965 118.148 53.3496C118.595 52.8027 119.146 52.5247 119.803 52.5156H121.84C122.086 52.5156 122.286 52.5977 122.441 52.7617C122.605 52.9167 122.688 53.1172 122.688 53.3633C122.688 55.9792 120.195 57.2826 115.209 57.2734C112.693 57.2734 110.734 56.6081 109.33 55.2773ZM112.023 48.0723H118.381C118.29 45.9212 117.232 44.8457 115.209 44.8457C113.195 44.8457 112.133 45.9212 112.023 48.0723ZM125.709 60.7734V42.8633C125.709 42.6172 125.786 42.4167 125.941 42.2617C126.105 42.0977 126.306 42.0156 126.543 42.0156H129.182C129.419 42.0156 129.615 42.0977 129.77 42.2617C129.934 42.4167 130.016 42.6172 130.016 42.8633V43.2734C131.456 42.2526 133.128 41.7422 135.033 41.7422C136.938 41.7422 138.529 42.4167 139.805 43.7656C141.081 45.1055 141.719 47.0286 141.719 49.5352C141.719 52.0326 141.058 53.9466 139.736 55.2773C138.415 56.6081 136.633 57.2734 134.391 57.2734C133.233 57.2734 131.916 57.041 130.439 56.5762V60.7734C130.439 61.0195 130.357 61.2201 130.193 61.375C130.038 61.5391 129.842 61.6211 129.605 61.6211H126.543C126.306 61.6211 126.105 61.5391 125.941 61.375C125.786 61.2201 125.709 61.0195 125.709 60.7734ZM130.439 53.418C131.615 53.7917 132.604 53.9785 133.406 53.9785C134.655 53.9785 135.539 53.623 136.059 52.9121C136.587 52.2012 136.852 51.0664 136.852 49.5078C136.852 47.9492 136.601 46.819 136.1 46.1172C135.607 45.4062 134.865 45.0508 133.871 45.0508C132.887 45.0508 131.743 45.4609 130.439 46.2812V53.418ZM144.248 56.166V42.8633C144.248 42.6172 144.326 42.4167 144.48 42.2617C144.645 42.0977 144.845 42.0156 145.082 42.0156H153.258C154.999 42.0156 156.407 42.3529 157.482 43.0273C158.567 43.7018 159.109 44.7181 159.109 46.0762C159.109 47.4251 158.549 48.446 157.428 49.1387C159.023 49.9408 159.82 51.1302 159.82 52.707C159.82 54.2839 159.305 55.3958 158.275 56.043C157.245 56.681 155.769 57 153.846 57H145.082C144.845 57 144.645 56.9225 144.48 56.7676C144.326 56.6035 144.248 56.403 144.248 56.166ZM148.979 53.9512H153.518C154.019 53.9512 154.402 53.8099 154.666 53.5273C154.939 53.2448 155.076 52.8711 155.076 52.4062C155.076 51.9414 154.939 51.5677 154.666 51.2852C154.402 51.0026 154.019 50.8613 153.518 50.8613H148.979V53.9512ZM148.979 47.8672H152.984C153.395 47.8672 153.727 47.7396 153.982 47.4844C154.247 47.2201 154.379 46.8828 154.379 46.4727C154.379 46.0625 154.247 45.7298 153.982 45.4746C153.727 45.2103 153.395 45.0781 152.984 45.0781H148.979V47.8672ZM162.213 56.166V42.8633C162.213 42.6172 162.29 42.4167 162.445 42.2617C162.609 42.0977 162.81 42.0156 163.047 42.0156H165.904C166.15 42.0156 166.351 42.0977 166.506 42.2617C166.67 42.4167 166.752 42.6172 166.752 42.8633V51.8457L171.564 43C171.71 42.7174 171.934 42.485 172.234 42.3027C172.535 42.1113 172.827 42.0156 173.109 42.0156H176.938C177.184 42.0156 177.384 42.0977 177.539 42.2617C177.703 42.4167 177.785 42.6172 177.785 42.8633V56.166C177.785 56.4121 177.703 56.6126 177.539 56.7676C177.384 56.9225 177.184 57 176.938 57H174.08C173.834 57 173.633 56.9225 173.479 56.7676C173.324 56.6035 173.246 56.403 173.246 56.166V47.1973L168.434 56.0156C168.288 56.2799 168.064 56.5124 167.764 56.7129C167.463 56.9043 167.171 57 166.889 57H163.047C162.801 57 162.6 56.9225 162.445 56.7676C162.29 56.6126 162.213 56.4121 162.213 56.166ZM188.381 57.2734C185.829 57.2734 183.842 56.6172 182.42 55.3047C180.998 53.9922 180.287 52.0645 180.287 49.5215C180.287 46.9694 180.993 45.0371 182.406 43.7246C183.819 42.403 185.783 41.7422 188.299 41.7422C190.824 41.7422 192.76 42.1432 194.109 42.9453C195.467 43.7474 196.146 44.9323 196.146 46.5C196.146 46.7461 196.064 46.9466 195.9 47.1016C195.745 47.2565 195.545 47.334 195.299 47.334H193.262C192.642 47.334 192.118 47.0013 191.689 46.3359C191.152 45.4792 190.199 45.0508 188.832 45.0508C187.474 45.0508 186.521 45.4017 185.975 46.1035C185.437 46.7962 185.168 47.931 185.168 49.5078C185.168 51.0846 185.446 52.224 186.002 52.9258C186.567 53.6276 187.542 53.9785 188.928 53.9785C190.322 53.9785 191.288 53.5501 191.826 52.6934C192.255 52.0189 192.779 51.6816 193.398 51.6816H195.436C195.682 51.6816 195.882 51.7637 196.037 51.9277C196.201 52.0827 196.283 52.2786 196.283 52.5156C196.283 54.0833 195.604 55.2682 194.246 56.0703C192.897 56.8724 190.942 57.2734 188.381 57.2734Z" fill="white"/>
<path d="M15 9C15 6.23858 17.2386 4 20 4H50C52.7614 4 55 6.23858 55 9V24H15V9Z" fill="#1D63FF"/>
<path fill-rule="evenodd" clip-rule="evenodd" d="M54 60C54 62.7614 51.7614 65 49 65H21C18.2386 65 16 62.7614 16 60V45H54V60ZM49 52H20V50H49V52ZM20 58H49V56H20V58Z" fill="#1D63FF"/>
<path fill-rule="evenodd" clip-rule="evenodd" d="M0 31C0 28.2386 2.23858 26 5 26H65C67.7614 26 70 28.2386 70 31V52.1111C70 54.8725 67.7614 57.1111 65 57.1111H57V42H13V57.1111H5C2.23858 57.1111 0 54.8725 0 52.1111V31ZM63 35C64.1046 35 65 34.1046 65 33C65 31.8954 64.1046 31 63 31C61.8954 31 61 31.8954 61 33C61 34.1046 61.8954 35 63 35ZM24 35.1208C24.6662 36.7183 26.2429 37.8411 28.0818 37.8411C29.9316 37.8411 31.516 36.705 32.1753 35.0925C32.276 35.1111 32.3798 35.1208 32.4859 35.1208H44.0474C44.9864 35.1208 45.7476 34.3596 45.7476 33.4206C45.7476 32.4816 44.9864 31.7203 44.0474 31.7203H32.4859C32.3798 31.7203 32.276 31.7301 32.1753 31.7486C31.516 30.1361 29.9316 29 28.0818 29C26.2429 29 24.6662 30.1228 24 31.7203H26.7204C27.6594 31.7203 28.4206 32.4816 28.4206 33.4206C28.4206 34.3596 27.6594 35.1208 26.7204 35.1208H24Z" fill="#1D63FF"/>
</svg>
