<svg width="188" height="65" viewBox="0 0 188 65" fill="none" xmlns="http://www.w3.org/2000/svg">
<path d="M81.9551 26.7148V9.69336C81.9551 9.33789 82.0781 9.03255 82.3242 8.77734C82.5703 8.52214 82.8711 8.39453 83.2266 8.39453H93.6582C99.1725 8.39453 101.93 10.9375 101.93 16.0234C101.93 21.1003 99.1725 23.6387 93.6582 23.6387H87.1094V26.7148C87.1094 27.0703 86.9818 27.3757 86.7266 27.6309C86.4805 27.877 86.1797 28 85.8242 28H83.2539C82.8984 28 82.5931 27.877 82.3379 27.6309C82.0827 27.3757 81.9551 27.0703 81.9551 26.7148ZM87.1094 19.7695H92.0996C93.6309 19.7695 94.793 19.5143 95.5859 19.0039C96.3789 18.4844 96.7754 17.4909 96.7754 16.0234C96.7754 14.5469 96.3789 13.5534 95.5859 13.043C94.793 12.5234 93.6309 12.2637 92.0996 12.2637H87.1094V19.7695ZM114.549 16.4883L112.443 16.4062C111.213 16.4062 110.037 17.0807 108.916 18.4297V27.166C108.916 27.4121 108.834 27.6126 108.67 27.7676C108.515 27.9225 108.319 28 108.082 28H105.02C104.773 28 104.573 27.9225 104.418 27.7676C104.263 27.6126 104.186 27.4121 104.186 27.166V13.8633C104.186 13.6172 104.263 13.4167 104.418 13.2617C104.582 13.0977 104.783 13.0156 105.02 13.0156H108.082C108.328 13.0156 108.529 13.0977 108.684 13.2617C108.839 13.4167 108.916 13.6172 108.916 13.8633V14.7246C109.846 14.0501 110.739 13.5534 111.596 13.2344C112.462 12.9062 113.592 12.7422 114.986 12.7422C115.232 12.7422 115.433 12.8242 115.588 12.9883C115.752 13.1432 115.834 13.3392 115.834 13.5762V15.6543C115.834 15.9004 115.752 16.1009 115.588 16.2559C115.433 16.4108 115.232 16.4883 114.986 16.4883H114.549ZM119.088 26.3047C117.666 24.9922 116.955 23.0599 116.955 20.5078C116.955 17.9466 117.666 16.0143 119.088 14.7109C120.51 13.3984 122.551 12.7422 125.213 12.7422C127.883 12.7422 129.93 13.3984 131.352 14.7109C132.773 16.0143 133.484 17.9466 133.484 20.5078C133.484 23.0599 132.773 24.9922 131.352 26.3047C129.93 27.6172 127.883 28.2734 125.213 28.2734C122.551 28.2734 120.51 27.6172 119.088 26.3047ZM122.547 16.9531C121.982 17.6914 121.699 18.8717 121.699 20.4941C121.699 22.1165 121.982 23.3014 122.547 24.0488C123.112 24.7962 124.001 25.1699 125.213 25.1699C126.434 25.1699 127.327 24.7962 127.893 24.0488C128.467 23.3014 128.754 22.1165 128.754 20.4941C128.754 18.8717 128.467 17.6914 127.893 16.9531C127.327 16.2148 126.434 15.8457 125.213 15.8457C124.001 15.8457 123.112 16.2148 122.547 16.9531Z" fill="#1D63FF"/>
<path d="M88.9277 57.2734C86.3757 57.2734 84.3887 56.6172 82.9668 55.3047C81.5449 53.9922 80.834 52.0645 80.834 49.5215C80.834 46.9694 81.5404 45.0371 82.9531 43.7246C84.3659 42.403 86.3301 41.7422 88.8457 41.7422C91.3704 41.7422 93.3073 42.1432 94.6562 42.9453C96.0143 43.7474 96.6934 44.9323 96.6934 46.5C96.6934 46.7461 96.6113 46.9466 96.4473 47.1016C96.2923 47.2565 96.0918 47.334 95.8457 47.334H93.8086C93.1888 47.334 92.6647 47.0013 92.2363 46.3359C91.6986 45.4792 90.7461 45.0508 89.3789 45.0508C88.0208 45.0508 87.0684 45.4017 86.5215 46.1035C85.9837 46.7962 85.7148 47.931 85.7148 49.5078C85.7148 51.0846 85.9928 52.224 86.5488 52.9258C87.1139 53.6276 88.0892 53.9785 89.4746 53.9785C90.8691 53.9785 91.8353 53.5501 92.373 52.6934C92.8014 52.0189 93.3255 51.6816 93.9453 51.6816H95.9824C96.2285 51.6816 96.429 51.7637 96.584 51.9277C96.748 52.0827 96.8301 52.2786 96.8301 52.5156C96.8301 54.0833 96.151 55.2682 94.793 56.0703C93.444 56.8724 91.4889 57.2734 88.9277 57.2734ZM100.33 55.2773C98.9264 53.9466 98.2246 52.0326 98.2246 49.5352C98.2246 47.0286 98.931 45.1055 100.344 43.7656C101.757 42.4167 103.716 41.7422 106.223 41.7422C108.729 41.7422 110.684 42.3984 112.088 43.7109C113.492 45.0143 114.193 46.8874 114.193 49.3301V50.1094C114.193 50.3555 114.111 50.5605 113.947 50.7246C113.792 50.8796 113.592 50.957 113.346 50.957H103.051C103.142 52.0781 103.461 52.8939 104.008 53.4043C104.564 53.9147 105.448 54.1699 106.66 54.1699C107.872 54.1699 108.702 53.8965 109.148 53.3496C109.595 52.8027 110.146 52.5247 110.803 52.5156H112.84C113.086 52.5156 113.286 52.5977 113.441 52.7617C113.605 52.9167 113.688 53.1172 113.688 53.3633C113.688 55.9792 111.195 57.2826 106.209 57.2734C103.693 57.2734 101.734 56.6081 100.33 55.2773ZM103.023 48.0723H109.381C109.29 45.9212 108.232 44.8457 106.209 44.8457C104.195 44.8457 103.133 45.9212 103.023 48.0723ZM116.709 60.7734V42.8633C116.709 42.6172 116.786 42.4167 116.941 42.2617C117.105 42.0977 117.306 42.0156 117.543 42.0156H120.182C120.419 42.0156 120.615 42.0977 120.77 42.2617C120.934 42.4167 121.016 42.6172 121.016 42.8633V43.2734C122.456 42.2526 124.128 41.7422 126.033 41.7422C127.938 41.7422 129.529 42.4167 130.805 43.7656C132.081 45.1055 132.719 47.0286 132.719 49.5352C132.719 52.0326 132.058 53.9466 130.736 55.2773C129.415 56.6081 127.633 57.2734 125.391 57.2734C124.233 57.2734 122.916 57.041 121.439 56.5762V60.7734C121.439 61.0195 121.357 61.2201 121.193 61.375C121.038 61.5391 120.842 61.6211 120.605 61.6211H117.543C117.306 61.6211 117.105 61.5391 116.941 61.375C116.786 61.2201 116.709 61.0195 116.709 60.7734ZM121.439 53.418C122.615 53.7917 123.604 53.9785 124.406 53.9785C125.655 53.9785 126.539 53.623 127.059 52.9121C127.587 52.2012 127.852 51.0664 127.852 49.5078C127.852 47.9492 127.601 46.819 127.1 46.1172C126.607 45.4062 125.865 45.0508 124.871 45.0508C123.887 45.0508 122.743 45.4609 121.439 46.2812V53.418ZM135.248 56.166V42.8633C135.248 42.6172 135.326 42.4167 135.48 42.2617C135.645 42.0977 135.845 42.0156 136.082 42.0156H144.258C145.999 42.0156 147.407 42.3529 148.482 43.0273C149.567 43.7018 150.109 44.7181 150.109 46.0762C150.109 47.4251 149.549 48.446 148.428 49.1387C150.023 49.9408 150.82 51.1302 150.82 52.707C150.82 54.2839 150.305 55.3958 149.275 56.043C148.245 56.681 146.769 57 144.846 57H136.082C135.845 57 135.645 56.9225 135.48 56.7676C135.326 56.6035 135.248 56.403 135.248 56.166ZM139.979 53.9512H144.518C145.019 53.9512 145.402 53.8099 145.666 53.5273C145.939 53.2448 146.076 52.8711 146.076 52.4062C146.076 51.9414 145.939 51.5677 145.666 51.2852C145.402 51.0026 145.019 50.8613 144.518 50.8613H139.979V53.9512ZM139.979 47.8672H143.984C144.395 47.8672 144.727 47.7396 144.982 47.4844C145.247 47.2201 145.379 46.8828 145.379 46.4727C145.379 46.0625 145.247 45.7298 144.982 45.4746C144.727 45.2103 144.395 45.0781 143.984 45.0781H139.979V47.8672ZM153.213 56.166V42.8633C153.213 42.6172 153.29 42.4167 153.445 42.2617C153.609 42.0977 153.81 42.0156 154.047 42.0156H156.904C157.15 42.0156 157.351 42.0977 157.506 42.2617C157.67 42.4167 157.752 42.6172 157.752 42.8633V51.8457L162.564 43C162.71 42.7174 162.934 42.485 163.234 42.3027C163.535 42.1113 163.827 42.0156 164.109 42.0156H167.938C168.184 42.0156 168.384 42.0977 168.539 42.2617C168.703 42.4167 168.785 42.6172 168.785 42.8633V56.166C168.785 56.4121 168.703 56.6126 168.539 56.7676C168.384 56.9225 168.184 57 167.938 57H165.08C164.834 57 164.633 56.9225 164.479 56.7676C164.324 56.6035 164.246 56.403 164.246 56.166V47.1973L159.434 56.0156C159.288 56.2799 159.064 56.5124 158.764 56.7129C158.463 56.9043 158.171 57 157.889 57H154.047C153.801 57 153.6 56.9225 153.445 56.7676C153.29 56.6126 153.213 56.4121 153.213 56.166ZM179.381 57.2734C176.829 57.2734 174.842 56.6172 173.42 55.3047C171.998 53.9922 171.287 52.0645 171.287 49.5215C171.287 46.9694 171.993 45.0371 173.406 43.7246C174.819 42.403 176.783 41.7422 179.299 41.7422C181.824 41.7422 183.76 42.1432 185.109 42.9453C186.467 43.7474 187.146 44.9323 187.146 46.5C187.146 46.7461 187.064 46.9466 186.9 47.1016C186.745 47.2565 186.545 47.334 186.299 47.334H184.262C183.642 47.334 183.118 47.0013 182.689 46.3359C182.152 45.4792 181.199 45.0508 179.832 45.0508C178.474 45.0508 177.521 45.4017 176.975 46.1035C176.437 46.7962 176.168 47.931 176.168 49.5078C176.168 51.0846 176.446 52.224 177.002 52.9258C177.567 53.6276 178.542 53.9785 179.928 53.9785C181.322 53.9785 182.288 53.5501 182.826 52.6934C183.255 52.0189 183.779 51.6816 184.398 51.6816H186.436C186.682 51.6816 186.882 51.7637 187.037 51.9277C187.201 52.0827 187.283 52.2786 187.283 52.5156C187.283 54.0833 186.604 55.2682 185.246 56.0703C183.897 56.8724 181.942 57.2734 179.381 57.2734Z" fill="white"/>
<path d="M15 9C15 6.23858 17.2386 4 20 4H50C52.7614 4 55 6.23858 55 9V24H15V9Z" fill="#1D63FF"/>
<path fill-rule="evenodd" clip-rule="evenodd" d="M0 31C0 28.2386 2.23858 26 5 26H65C67.7614 26 70 28.2386 70 31V52.1111C70 54.8725 67.7614 57.1111 65 57.1111H57V42H13V57.1111H5C2.23858 57.1111 0 54.8725 0 52.1111V31ZM65 33C65 34.1046 64.1046 35 63 35C61.8954 35 61 34.1046 61 33C61 31.8954 61.8954 31 63 31C64.1046 31 65 31.8954 65 33Z" fill="#1D63FF"/>
<path fill-rule="evenodd" clip-rule="evenodd" d="M54 60C54 62.7614 51.7614 65 49 65H21C18.2386 65 16 62.7614 16 60V45H54V60ZM49 52H20V50H49V52ZM20 58H49V56H20V58Z" fill="#1D63FF"/>
</svg>
